<?xml version="1.0" standalone="no"?>
<!DOCTYPE svg PUBLIC "-//W3C//DTD SVG 20010904//EN"
 "http://www.w3.org/TR/2001/REC-SVG-20010904/DTD/svg10.dtd">
<svg version="1.0" xmlns="http://www.w3.org/2000/svg"
 width="520.000000pt" height="520.000000pt" viewBox="0 0 520.000000 520.000000"
 preserveAspectRatio="xMidYMid meet">
<metadata>
Created by potrace 1.14, written by Peter Selinger 2001-2017
</metadata>
<g transform="translate(0.000000,520.000000) scale(0.100000,-0.100000)"
fill="#000000" stroke="none">
<path d="M0 2600 l0 -2600 2600 0 2600 0 0 2600 0 2600 -2600 0 -2600 0 0
-2600z m1868 726 l736 -1448 87 173 c48 96 378 748 733 1449 l645 1275 391 3
390 2 0 -2180 0 -2180 -330 0 -330 0 -2 1605 -3 1604 -664 -1295 -664 -1294
-255 2 -256 3 -666 1289 -665 1288 -3 -1601 -2 -1601 -330 0 -330 0 0 2180 0
2180 391 -2 391 -3 736 -1449z"/>
</g>
</svg>
