<!-- Generated by IcoMoon.io -->
<svg version="1.1" xmlns="http://www.w3.org/2000/svg" width="32" height="32" viewBox="0 0 32 32">
<title>instagram-mob</title>
<path fill="none" stroke-linejoin="round" stroke-linecap="round" stroke-miterlimit="4" stroke-width="2.0800" stroke="#000" d="M22.666 2.666h-13.333c-3.682 0-6.667 2.985-6.667 6.667v0 13.333c0 3.682 2.985 6.667 6.667 6.667v0h13.334c3.681-0.001 6.666-2.986 6.666-6.667v0-13.333c0-3.682-2.984-6.666-6.666-6.667h-0z"></path>
<path fill="none" stroke-linejoin="round" stroke-linecap="round" stroke-miterlimit="4" stroke-width="2.0800" stroke="#000" d="M21.333 15.16c0.045 0.261 0.071 0.562 0.071 0.868 0 2.946-2.388 5.334-5.334 5.334-2.7 0-4.932-2.007-5.286-4.61l-0.003-0.028c-0.029-0.209-0.046-0.451-0.046-0.697 0-2.946 2.388-5.334 5.334-5.334 2.64 0 4.831 1.917 5.259 4.435l0.004 0.031zM23.334 8.666h0.016"></path>
</svg>
