<!-- Generated by IcoMoon.io -->
<svg version="1.1" xmlns="http://www.w3.org/2000/svg" width="32" height="32" viewBox="0 0 32 32">
<title>twitter-mob</title>
<path fill="none" stroke-linejoin="round" stroke-linecap="round" stroke-miterlimit="4" stroke-width="2.0800" stroke="#000" d="M30.667 4c-1.2 0.857-2.591 1.553-4.084 2.014l-0.103 0.027c-1.101-1.262-2.712-2.054-4.508-2.054-3.299 0-5.973 2.674-5.973 5.973 0 0.029 0 0.057 0.001 0.086l-0-0.004v1.333c-0.11 0.003-0.239 0.005-0.369 0.005-4.79 0-9.027-2.37-11.602-6.001l-0.030-0.044s-5.333 12 6.667 17.333c-2.442 1.678-5.463 2.679-8.717 2.679-0.217 0-0.433-0.004-0.648-0.013l0.031 0.001c12 6.666 26.667 0 26.667-15.334 0-0.373-0.037-0.742-0.107-1.107 1.323-1.305 2.294-2.963 2.759-4.822l0.015-0.071z"></path>
</svg>
