<svg width="197" height="81" viewBox="0 0 197 81" fill="none" xmlns="http://www.w3.org/2000/svg">
<rect width="197" height="81" fill="#121212"/>
<path d="M57.7769 42.604V28.604H60.2769L65.0169 37.924L69.7369 28.604H72.2369V42.604H70.1169V32.264L65.8369 40.604H64.1969L59.8969 32.284V42.604H57.7769Z" fill="#F7F7F7"/>
<path d="M78.6815 42.604V28.604H80.8015V42.604H78.6815Z" fill="#F7F7F7"/>
<path d="M87.2425 42.604V28.604H89.7425L94.4825 37.924L99.2025 28.604H101.702V42.604H99.5825V32.264L95.3025 40.604H93.6625L89.3625 32.284V42.604H87.2425Z" fill="#F7F7F7"/>
<path d="M108.147 42.604V28.604H110.267V42.604H108.147Z" fill="#F7F7F7"/>
<path d="M116.708 42.604V28.604H118.828L125.848 39.144V28.604H127.968V42.604H125.848L118.828 32.064V42.604H116.708Z" fill="#F7F7F7"/>
<path d="M140.87 42.844C139.483 42.844 138.27 42.5373 137.23 41.924C136.19 41.3107 135.376 40.464 134.79 39.384C134.203 38.2907 133.91 37.0307 133.91 35.604C133.91 34.1773 134.203 32.924 134.79 31.844C135.376 30.7507 136.19 29.8973 137.23 29.284C138.27 28.6707 139.483 28.364 140.87 28.364C142.256 28.364 143.47 28.6707 144.51 29.284C145.55 29.8973 146.356 30.7507 146.93 31.844C147.516 32.924 147.81 34.1773 147.81 35.604C147.81 37.0307 147.516 38.2907 146.93 39.384C146.356 40.464 145.55 41.3107 144.51 41.924C143.47 42.5373 142.256 42.844 140.87 42.844ZM140.87 40.944C141.83 40.944 142.663 40.7307 143.37 40.304C144.09 39.8773 144.65 39.264 145.05 38.464C145.45 37.664 145.65 36.7107 145.65 35.604C145.65 34.4973 145.45 33.544 145.05 32.744C144.65 31.944 144.09 31.3307 143.37 30.904C142.663 30.4773 141.83 30.264 140.87 30.264C139.91 30.264 139.07 30.4773 138.35 30.904C137.63 31.3307 137.07 31.944 136.67 32.744C136.283 33.544 136.09 34.4973 136.09 35.604C136.09 36.7107 136.283 37.664 136.67 38.464C137.07 39.264 137.63 39.8773 138.35 40.304C139.07 40.7307 139.91 40.944 140.87 40.944Z" fill="#F7F7F7"/>
<path d="M29 51.54V45.94H30.808C31.2453 45.94 31.6027 46.012 31.88 46.156C32.1573 46.3 32.3627 46.4973 32.496 46.748C32.6293 46.9987 32.696 47.276 32.696 47.58C32.696 47.932 32.6 48.2493 32.408 48.532C32.2213 48.8147 31.928 49.0147 31.528 49.132L32.752 51.54H31.96L30.824 49.228H30.776H29.672V51.54H29ZM29.672 48.7H30.76C31.192 48.7 31.5067 48.596 31.704 48.388C31.9013 48.18 32 47.9133 32 47.588C32 47.2573 31.9013 46.996 31.704 46.804C31.512 46.6067 31.1947 46.508 30.752 46.508H29.672V48.7Z" fill="#D8D7D7"/>
<path d="M35.1822 51.54V45.94H38.6462V46.492H35.8542V48.444H38.4062V48.988H35.8542V50.988H38.6462V51.54H35.1822Z" fill="#D8D7D7"/>
<path d="M42.9218 51.636C42.5111 51.636 42.1538 51.5613 41.8498 51.412C41.5458 51.2627 41.3111 51.0547 41.1458 50.788C40.9805 50.5213 40.8978 50.212 40.8978 49.86H41.6018C41.6018 50.0787 41.6525 50.2813 41.7538 50.468C41.8551 50.6493 42.0018 50.796 42.1938 50.908C42.3911 51.0147 42.6338 51.068 42.9218 51.068C43.3005 51.068 43.5938 50.9773 43.8018 50.796C44.0098 50.6147 44.1138 50.388 44.1138 50.116C44.1138 49.892 44.0658 49.7133 43.9698 49.58C43.8738 49.4413 43.7431 49.3293 43.5778 49.244C43.4178 49.1587 43.2311 49.084 43.0178 49.02C42.8098 48.956 42.5911 48.884 42.3618 48.804C41.9298 48.6547 41.6098 48.4707 41.4018 48.252C41.1938 48.028 41.0898 47.7373 41.0898 47.38C41.0845 47.0813 41.1538 46.8173 41.2978 46.588C41.4418 46.3533 41.6445 46.172 41.9058 46.044C42.1725 45.9107 42.4871 45.844 42.8498 45.844C43.2071 45.844 43.5165 45.9107 43.7778 46.044C44.0445 46.1773 44.2498 46.3613 44.3938 46.596C44.5431 46.8307 44.6205 47.0973 44.6258 47.396H43.9218C43.9218 47.2413 43.8818 47.0893 43.8018 46.94C43.7218 46.7853 43.5991 46.66 43.4338 46.564C43.2738 46.468 43.0711 46.42 42.8258 46.42C42.5218 46.4147 42.2711 46.492 42.0738 46.652C41.8818 46.812 41.7858 47.0333 41.7858 47.316C41.7858 47.556 41.8525 47.74 41.9858 47.868C42.1245 47.996 42.3165 48.1027 42.5618 48.188C42.8071 48.268 43.0898 48.3613 43.4098 48.468C43.6765 48.564 43.9165 48.676 44.1298 48.804C44.3431 48.932 44.5085 49.0973 44.6258 49.3C44.7485 49.5027 44.8098 49.7613 44.8098 50.076C44.8098 50.3427 44.7405 50.596 44.6018 50.836C44.4631 51.0707 44.2525 51.2627 43.9698 51.412C43.6925 51.5613 43.3431 51.636 42.9218 51.636Z" fill="#D8D7D7"/>
<path d="M48.382 51.54V46.492H46.71V45.94H50.726V46.492H49.054V51.54H48.382Z" fill="#D8D7D7"/>
<path d="M52.0018 51.54L54.0658 45.94H54.7778L56.8338 51.54H56.1217L55.6097 50.1H53.2257L52.7057 51.54H52.0018ZM53.4258 49.556H55.4098L54.4178 46.788L53.4258 49.556Z" fill="#D8D7D7"/>
<path d="M60.8881 51.636C60.5041 51.636 60.1547 51.5613 59.8401 51.412C59.5307 51.2573 59.2827 51.02 59.0961 50.7C58.9094 50.38 58.8161 49.972 58.8161 49.476V45.94H59.4881V49.484C59.4881 50.028 59.6187 50.4227 59.8801 50.668C60.1414 50.9133 60.4827 51.036 60.9041 51.036C61.3254 51.036 61.6641 50.9133 61.9201 50.668C62.1761 50.4227 62.3041 50.028 62.3041 49.484V45.94H62.9761V49.476C62.9761 49.972 62.8827 50.38 62.6961 50.7C62.5094 51.02 62.2587 51.2573 61.9441 51.412C61.6294 51.5613 61.2774 51.636 60.8881 51.636Z" fill="#D8D7D7"/>
<path d="M65.5541 51.54V45.94H67.3621C67.7994 45.94 68.1567 46.012 68.4341 46.156C68.7114 46.3 68.9167 46.4973 69.0501 46.748C69.1834 46.9987 69.2501 47.276 69.2501 47.58C69.2501 47.932 69.1541 48.2493 68.9621 48.532C68.7754 48.8147 68.4821 49.0147 68.0821 49.132L69.3061 51.54H68.5141L67.3781 49.228H67.3301H66.2261V51.54H65.5541ZM66.2261 48.7H67.3141C67.7461 48.7 68.0607 48.596 68.2581 48.388C68.4554 48.18 68.5541 47.9133 68.5541 47.588C68.5541 47.2573 68.4554 46.996 68.2581 46.804C68.0661 46.6067 67.7487 46.508 67.3061 46.508H66.2261V48.7Z" fill="#D8D7D7"/>
<path d="M71.3843 51.54L73.4483 45.94H74.1603L76.2163 51.54H75.5043L74.9923 50.1H72.6083L72.0883 51.54H71.3843ZM72.8083 49.556H74.7923L73.8003 46.788L72.8083 49.556Z" fill="#D8D7D7"/>
<path d="M78.4888 51.54V45.94H79.1608L82.1448 50.428V45.94H82.8168V51.54H82.1448L79.1608 47.052V51.54H78.4888Z" fill="#D8D7D7"/>
<path d="M86.7564 51.54V46.492H85.0844V45.94H89.1004V46.492H87.4284V51.54H86.7564Z" fill="#D8D7D7"/>
<path d="M90.8425 49.5V48.932H94.0105V49.5H90.8425Z" fill="#D8D7D7"/>
<path d="M96.5041 51.54V45.94H97.1761V48.412H100.08V45.94H100.752V51.54H100.08V48.964H97.1761V51.54H96.5041Z" fill="#D8D7D7"/>
<path d="M105.918 51.636C105.368 51.636 104.886 51.516 104.47 51.276C104.059 51.0307 103.736 50.6893 103.502 50.252C103.272 49.8147 103.158 49.3107 103.158 48.74C103.158 48.1693 103.272 47.668 103.502 47.236C103.736 46.7987 104.059 46.4573 104.47 46.212C104.886 45.9667 105.368 45.844 105.918 45.844C106.472 45.844 106.955 45.9667 107.366 46.212C107.782 46.4573 108.104 46.7987 108.334 47.236C108.563 47.668 108.678 48.1693 108.678 48.74C108.678 49.3107 108.563 49.8147 108.334 50.252C108.104 50.6893 107.782 51.0307 107.366 51.276C106.955 51.516 106.472 51.636 105.918 51.636ZM105.918 51.044C106.328 51.044 106.688 50.9533 106.998 50.772C107.312 50.5853 107.555 50.3213 107.726 49.98C107.902 49.6333 107.99 49.22 107.99 48.74C107.99 48.26 107.902 47.8493 107.726 47.508C107.555 47.1667 107.312 46.9053 106.998 46.724C106.688 46.5373 106.328 46.444 105.918 46.444C105.507 46.444 105.144 46.5373 104.83 46.724C104.52 46.9053 104.278 47.1667 104.102 47.508C103.931 47.8493 103.846 48.26 103.846 48.74C103.846 49.22 103.931 49.6333 104.102 49.98C104.278 50.3213 104.52 50.5853 104.83 50.772C105.144 50.9533 105.507 51.044 105.918 51.044Z" fill="#D8D7D7"/>
<path d="M112.11 51.54V46.492H110.438V45.94H114.454V46.492H112.782V51.54H112.11Z" fill="#D8D7D7"/>
<path d="M116.715 51.54V45.94H120.179V46.492H117.387V48.444H119.939V48.988H117.387V50.988H120.179V51.54H116.715Z" fill="#D8D7D7"/>
<path d="M122.67 51.54V45.94H123.342V51.004H125.95V51.54H122.67Z" fill="#D8D7D7"/>
<path d="M134.327 51.636C133.777 51.636 133.303 51.516 132.903 51.276C132.508 51.0307 132.201 50.692 131.983 50.26C131.764 49.8227 131.655 49.316 131.655 48.74C131.655 48.1693 131.764 47.668 131.983 47.236C132.201 46.7987 132.508 46.4573 132.903 46.212C133.303 45.9667 133.777 45.844 134.327 45.844C134.967 45.844 135.487 45.9987 135.887 46.308C136.292 46.612 136.551 47.0387 136.663 47.588H135.919C135.833 47.2413 135.657 46.964 135.391 46.756C135.129 46.5427 134.775 46.436 134.327 46.436C133.927 46.436 133.577 46.5293 133.279 46.716C132.98 46.8973 132.748 47.1613 132.583 47.508C132.423 47.8493 132.343 48.26 132.343 48.74C132.343 49.22 132.423 49.6333 132.583 49.98C132.748 50.3213 132.98 50.5853 133.279 50.772C133.577 50.9533 133.927 51.044 134.327 51.044C134.775 51.044 135.129 50.9427 135.391 50.74C135.657 50.532 135.833 50.2573 135.919 49.916H136.663C136.551 50.4547 136.292 50.876 135.887 51.18C135.487 51.484 134.967 51.636 134.327 51.636Z" fill="#D8D7D7"/>
<path d="M141.612 51.636C141.063 51.636 140.58 51.516 140.164 51.276C139.754 51.0307 139.431 50.6893 139.196 50.252C138.967 49.8147 138.852 49.3107 138.852 48.74C138.852 48.1693 138.967 47.668 139.196 47.236C139.431 46.7987 139.754 46.4573 140.164 46.212C140.58 45.9667 141.063 45.844 141.612 45.844C142.167 45.844 142.65 45.9667 143.06 46.212C143.476 46.4573 143.799 46.7987 144.028 47.236C144.258 47.668 144.372 48.1693 144.372 48.74C144.372 49.3107 144.258 49.8147 144.028 50.252C143.799 50.6893 143.476 51.0307 143.06 51.276C142.65 51.516 142.167 51.636 141.612 51.636ZM141.612 51.044C142.023 51.044 142.383 50.9533 142.692 50.772C143.007 50.5853 143.25 50.3213 143.42 49.98C143.596 49.6333 143.684 49.22 143.684 48.74C143.684 48.26 143.596 47.8493 143.42 47.508C143.25 47.1667 143.007 46.9053 142.692 46.724C142.383 46.5373 142.023 46.444 141.612 46.444C141.202 46.444 140.839 46.5373 140.524 46.724C140.215 46.9053 139.972 47.1667 139.796 47.508C139.626 47.8493 139.54 48.26 139.54 48.74C139.54 49.22 139.626 49.6333 139.796 49.98C139.972 50.3213 140.215 50.5853 140.524 50.772C140.839 50.9533 141.202 51.044 141.612 51.044Z" fill="#D8D7D7"/>
<path d="M146.782 51.54V45.94H147.566L149.582 49.844L151.582 45.94H152.374V51.54H151.702V47.14L149.83 50.74H149.326L147.454 47.148V51.54H146.782Z" fill="#D8D7D7"/>
<path d="M154.995 51.54V45.94H156.835C157.273 45.94 157.633 46.012 157.915 46.156C158.198 46.3 158.406 46.4947 158.539 46.74C158.678 46.9853 158.747 47.2627 158.747 47.572C158.747 47.876 158.681 48.1507 158.547 48.396C158.414 48.6413 158.206 48.8387 157.923 48.988C157.641 49.132 157.278 49.204 156.835 49.204H155.667V51.54H154.995ZM155.667 48.636H156.819C157.267 48.636 157.585 48.5427 157.771 48.356C157.963 48.164 158.059 47.9027 158.059 47.572C158.059 47.236 157.963 46.9747 157.771 46.788C157.585 46.596 157.267 46.5 156.819 46.5H155.667V48.636Z" fill="#D8D7D7"/>
<path d="M161.068 51.54V45.94H161.74V51.004H164.348V51.54H161.068Z" fill="#D8D7D7"/>
<path d="M166.711 51.54V45.94H170.175V46.492H167.383V48.444H169.935V48.988H167.383V50.988H170.175V51.54H166.711Z" fill="#D8D7D7"/>
<path d="M172.379 51.54L174.091 48.716L172.379 45.94H173.139L174.515 48.18L175.827 45.94H176.579L174.867 48.748L176.587 51.54H175.827L174.443 49.292L173.139 51.54H172.379Z" fill="#D8D7D7"/>
</svg>
