<svg aria-hidden="true" style="position:absolute;width:0;height:0;overflow:hidden" xmlns="http://www.w3.org/2000/svg">
  <defs>
    <symbol id="icon-logo" viewBox="0 0 125 32">
      <path fill="currentColor" d="M24.775 16.421V4.632h2.105l3.992 7.848 3.975-7.848h2.105v11.789h-1.785V7.714l-3.604 7.023h-1.381l-3.621-7.006v8.691h-1.785zm17.604 0V4.632h1.785v11.789h-1.785zm7.209 0V4.632h2.105l3.992 7.848 3.975-7.848h2.105v11.789H59.98V7.714l-3.604 7.023h-1.381l-3.621-7.006v8.691h-1.785zm17.604 0V4.632h1.785v11.789h-1.785zm7.209 0V4.632h1.785l5.912 8.876V4.632h1.785v11.789h-1.785l-5.912-8.876v8.876h-1.785zm20.347.202c-1.168 0-2.189-.258-3.065-.775s-1.561-1.229-2.055-2.139c-.494-.921-.741-1.982-.741-3.183s.247-2.257.741-3.166c.493-.921 1.179-1.639 2.055-2.156s1.897-.775 3.065-.775c1.167 0 2.189.258 3.065.775s1.555 1.235 2.038 2.156c.493.909.741 1.965.741 3.166s-.248 2.262-.741 3.183c-.483.909-1.162 1.622-2.038 2.139s-1.898.775-3.065.775zm0-1.6c.808 0 1.51-.18 2.105-.539.606-.359 1.078-.876 1.415-1.549s.505-1.476.505-2.408c0-.932-.168-1.735-.505-2.408s-.808-1.19-1.415-1.549c-.595-.359-1.297-.539-2.105-.539s-1.516.18-2.122.539c-.606.359-1.078.876-1.415 1.549-.326.674-.488 1.476-.488 2.408s.163 1.735.488 2.408c.337.674.808 1.19 1.415 1.549s1.314.539 2.122.539zM.499 29.895v-4.716h1.523c.368 0 .669.061.903.182s.406.287.519.499c.112.211.168.445.168.701 0 .296-.081.564-.243.802-.157.238-.404.406-.741.505l1.031 2.028h-.667l-.957-1.947h-.97v1.947H.499zm.565-2.392h.916c.364 0 .629-.088.795-.263s.249-.4.249-.674c0-.278-.083-.499-.249-.66-.162-.166-.429-.249-.802-.249h-.909v1.846zm4.641 2.392v-4.716h2.917v.465H6.271v1.644H8.42v.458H6.271v1.684h2.351v.465H5.705zm6.517.081c-.346 0-.647-.063-.903-.189s-.454-.301-.593-.525a1.455 1.455 0 0 1-.209-.781h.593a.979.979 0 0 0 .499.883c.166.09.371.135.613.135.319 0 .566-.076.741-.229s.263-.344.263-.573c0-.189-.04-.339-.121-.451a.889.889 0 0 0-.33-.283 2.576 2.576 0 0 0-.472-.189 16.771 16.771 0 0 1-.552-.182c-.364-.126-.633-.281-.808-.465-.175-.189-.263-.433-.263-.734a1.191 1.191 0 0 1 .687-1.125c.225-.112.49-.168.795-.168a1.7 1.7 0 0 1 .781.168 1.266 1.266 0 0 1 .714 1.139h-.593a.81.81 0 0 0-.101-.384.78.78 0 0 0-.31-.317.98.98 0 0 0-.512-.121c-.256-.004-.467.061-.633.195-.162.135-.243.321-.243.559 0 .202.056.357.168.465.117.108.278.198.485.269.207.067.445.146.714.236.225.081.427.175.606.283s.319.247.418.418c.103.171.155.388.155.653 0 .225-.058.438-.175.64a1.305 1.305 0 0 1-.532.485c-.234.126-.528.189-.883.189zm4.598-.081v-4.251h-1.408v-.465h3.382v.465h-1.408v4.251h-.566zm3.048 0 1.738-4.716h.6l1.731 4.716h-.6l-.431-1.213h-2.008l-.438 1.213h-.593zm1.2-1.671h1.671l-.835-2.331-.835 2.331zm6.284 1.752c-.323 0-.618-.063-.883-.189-.261-.13-.469-.33-.627-.6s-.236-.613-.236-1.031v-2.978h.566v2.984c0 .458.11.79.33.997s.507.31.862.31.64-.103.856-.31.323-.539.323-.997v-2.984h.566v2.978c0 .418-.079.761-.236 1.031s-.368.469-.633.6a2.043 2.043 0 0 1-.889.189zm3.929-.081v-4.716h1.523c.368 0 .669.061.903.182s.406.287.519.499c.112.211.168.445.168.701 0 .296-.081.564-.243.802-.157.238-.404.406-.741.505l1.031 2.028h-.667l-.957-1.947h-.97v1.947h-.566zm.566-2.392h.916c.364 0 .629-.088.795-.263s.249-.4.249-.674c0-.278-.083-.499-.249-.66-.162-.166-.429-.249-.802-.249h-.909v1.846zm4.344 2.392 1.738-4.716h.6l1.731 4.716h-.6l-.431-1.213h-2.008l-.438 1.213h-.593zm1.199-1.671h1.671l-.835-2.331-.835 2.331zm4.783 1.671v-4.716h.566l2.513 3.779v-3.779h.566v4.716h-.566l-2.513-3.779v3.779h-.566zm6.963 0v-4.251h-1.408v-.465h3.382v.465h-1.408v4.251h-.566zm3.44-1.718v-.478h2.668v.478h-2.668zm4.768 1.718v-4.716h.566v2.082h2.445v-2.082h.566v4.716h-.566v-2.169H57.91v2.169h-.566zm7.927.081c-.463 0-.869-.101-1.219-.303a2.184 2.184 0 0 1-.815-.862c-.193-.368-.29-.793-.29-1.273s.097-.903.29-1.267c.198-.368.469-.656.815-.862.35-.207.757-.31 1.219-.31.467 0 .874.103 1.219.31.35.207.622.494.815.862.193.364.29.786.29 1.267s-.097.905-.29 1.273a2.124 2.124 0 0 1-.815.862c-.346.202-.752.303-1.219.303zm0-.499c.346 0 .649-.076.909-.229.265-.157.469-.38.613-.667.148-.292.222-.64.222-1.044s-.074-.75-.222-1.037a1.532 1.532 0 0 0-.613-.66c-.26-.157-.564-.236-.909-.236s-.651.079-.916.236c-.26.153-.465.373-.613.66-.144.287-.216.633-.216 1.037s.072.752.216 1.044c.148.287.353.51.613.667.265.153.57.229.916.229zm5.215.418v-4.251h-1.408v-.465h3.382v.465h-1.408v4.251h-.566zm3.878 0v-4.716h2.917v.465H74.93v1.644h2.149v.458H74.93v1.684h2.351v.465h-2.917zm5.015 0v-4.716h.566v4.264h2.196v.451h-2.762zm9.816.081c-.463 0-.862-.101-1.199-.303a2.1 2.1 0 0 1-.775-.856c-.184-.368-.276-.795-.276-1.28 0-.481.092-.903.276-1.267.184-.368.442-.656.775-.862.337-.207.736-.31 1.199-.31.539 0 .977.13 1.314.391.341.256.559.615.653 1.078h-.627a1.242 1.242 0 0 0-.445-.701c-.221-.18-.519-.269-.896-.269-.337 0-.632.079-.883.236a1.52 1.52 0 0 0-.586.667c-.135.287-.202.633-.202 1.037s.067.752.202 1.044c.139.287.334.51.586.667.251.153.546.229.883.229.377 0 .675-.085.896-.256a1.24 1.24 0 0 0 .445-.694h.627c-.094.454-.312.808-.653 1.064-.337.256-.775.384-1.314.384zm6.135 0c-.462 0-.869-.101-1.219-.303a2.198 2.198 0 0 1-.815-.862c-.193-.368-.29-.793-.29-1.273s.097-.903.29-1.267c.198-.368.47-.656.815-.862.35-.207.757-.31 1.219-.31.467 0 .874.103 1.219.31.35.207.622.494.815.862.194.364.29.786.29 1.267s-.096.905-.29 1.273a2.124 2.124 0 0 1-.815.862c-.345.202-.752.303-1.219.303zm0-.499c.346 0 .649-.076.909-.229.265-.157.47-.38.613-.667.148-.292.222-.64.222-1.044s-.074-.75-.222-1.037a1.526 1.526 0 0 0-.613-.66c-.26-.157-.563-.236-.909-.236s-.651.079-.916.236c-.26.153-.465.373-.613.66-.143.287-.216.633-.216 1.037s.072.752.216 1.044c.148.287.353.51.613.667a1.8 1.8 0 0 0 .916.229zm4.353.418v-4.716h.66l1.698 3.288 1.684-3.288h.667v4.716h-.566V26.19l-1.576 3.032h-.424l-1.576-3.025v3.699h-.566zm6.917 0v-4.716h1.549c.369 0 .672.061.909.182s.413.285.525.492c.117.207.175.44.175.701 0 .256-.056.487-.168.694s-.287.373-.525.499c-.237.121-.543.182-.916.182h-.984v1.967h-.566zm.565-2.446h.97c.377 0 .645-.079.802-.236.162-.162.243-.382.243-.66 0-.283-.081-.503-.243-.66-.157-.162-.424-.243-.802-.243h-.97v1.799zm4.549 2.446v-4.716h.566v4.264h2.196v.451h-2.762zm4.752 0v-4.716h2.917v.465h-2.351v1.644h2.149v.458h-2.149v1.684h2.351v.465h-2.917zm4.773 0 1.442-2.378-1.442-2.338h.64l1.159 1.886 1.105-1.886h.633l-1.442 2.365 1.448 2.351h-.64l-1.165-1.893-1.098 1.893h-.64z"/>
    </symbol>
    <symbol id="icon-chevron-right" viewBox="0 0 32 32">
      <path stroke-linejoin="round" stroke-linecap="round" stroke-width="4" d="m9 30 14-14L9 2"/>
    </symbol>
    <symbol id="icon-chevron-left" viewBox="0 0 32 32">
      <path stroke-linejoin="round" stroke-linecap="round" stroke-width="4" d="M23 30 9 16 23 2"/>
    </symbol>
    <symbol id="icon-shevron-down" fill="none">
      <path stroke="#F7F7F7" stroke-linecap="round" stroke-linejoin="round" stroke-width="1.8" d="m5 7.5 5 5 5-5"/>
    </symbol>
    <symbol id="icon-cross" viewBox="0 0 32 32">
      <path stroke-linejoin="round" stroke-linecap="round" stroke-width="3.6" d="M29.334 2.666 2.666 29.334m0-26.668 26.668 26.668"/>
    </symbol>
    <symbol id="icon-twitter" viewBox="0 0 32 32">
      <path stroke="currentColor" stroke-linejoin="round" stroke-linecap="round" stroke-width="2" d="M30.667 4a14.37 14.37 0 0 1-4.084 2.013l-.103.027a5.973 5.973 0 0 0-10.479 4.004v-.004 1.333a14.197 14.197 0 0 1-11.97-5.996l-.03-.044s-5.333 12 6.667 17.333a15.387 15.387 0 0 1-9.364 2.666l.031.001c12 6.667 26.667 0 26.667-15.333 0-.372-.037-.741-.107-1.107a10.277 10.277 0 0 0 2.758-4.822L30.668 4z"/>
    </symbol>
    <symbol id="icon-facebook" viewBox="0 0 32 32">
      <path stroke="currentColor" stroke-linejoin="round" stroke-linecap="round" stroke-width="2" d="M24 2.667h-4a6.667 6.667 0 0 0-6.667 6.667v4h-4v5.333h4v10.667h5.333V18.667h4l1.333-5.333h-5.333v-4c0-.736.597-1.333 1.333-1.333h4V2.668z"/>
    </symbol>
    <symbol id="icon-instagram" viewBox="0 0 32 32">
      <path stroke="currentColor" stroke-linejoin="round" stroke-linecap="round" stroke-width="2" d="M22.667 2.667H9.334a6.667 6.667 0 0 0-6.667 6.667v13.333a6.667 6.667 0 0 0 6.667 6.667h13.333a6.667 6.667 0 0 0 6.667-6.667V9.334a6.667 6.667 0 0 0-6.667-6.667z"/>
      <path stroke="currentColor" stroke-linejoin="round" stroke-linecap="round" stroke-width="2" d="M21.333 15.16a5.333 5.333 0 1 1-10.547 1.593l-.003-.028a5.333 5.333 0 0 1 10.547-1.596l.004.031zm2-6.493h.016"/>
    </symbol>
    <symbol id="icon-map" viewBox="0 0 26 32">
      <path d="M25.905 13.091C25.905 23.273 12.953 32 12.953 32S.001 23.273.001 13.091c0-3.472 1.365-6.802 3.794-9.257A12.847 12.847 0 0 1 12.952 0h.001a12.841 12.841 0 0 1 9.157 3.833l.001.001a13.117 13.117 0 0 1 3.794 9.246v.012-.001z"/>
      <path d="M12.952 17.455c2.385 0 4.318-1.954 4.318-4.364s-1.933-4.363-4.318-4.363-4.317 1.954-4.317 4.363c0 2.41 1.933 4.363 4.317 4.363z"/>
    </symbol>
    <symbol id="icon-close" viewBox="0 0 28 28" fill="none">
      <path stroke="#F7F7F7" stroke-linecap="round" stroke-linejoin="round" stroke-width="2" d="M21 7 7 21M7 7l14 14"/>
    </symbol>
    <symbol id="icon-menu" viewBox="0 0 28 28" fill="none">
      <path stroke="currentColor" stroke-linecap="round" stroke-linejoin="round" stroke-width="2" d="M3.5 14h21m-21-7h21m-21 14h14"/>
    </symbol>
  </defs>
</svg>
