<svg width="20" height="20" viewBox="0 0 20 20" fill="none" xmlns="http://www.w3.org/2000/svg">
<path d="M14.1665 1.66602H5.83317C3.53198 1.66602 1.6665 3.5315 1.6665 5.83268V14.166C1.6665 16.4672 3.53198 18.3327 5.83317 18.3327H14.1665C16.4677 18.3327 18.3332 16.4672 18.3332 14.166V5.83268C18.3332 3.5315 16.4677 1.66602 14.1665 1.66602Z" stroke="#F7F7F7" stroke-width="1.3" stroke-linecap="round" stroke-linejoin="round"/>
<path d="M13.3333 9.47525C13.4361 10.1688 13.3176 10.8771 12.9947 11.4994C12.6718 12.1218 12.1609 12.6264 11.5346 12.9416C10.9083 13.2569 10.1986 13.3666 9.50641 13.2552C8.81419 13.1438 8.17472 12.817 7.67895 12.3212C7.18318 11.8255 6.85636 11.186 6.74497 10.4938C6.63359 9.80154 6.74331 9.09183 7.05852 8.46556C7.37374 7.8393 7.87841 7.32837 8.50074 7.00545C9.12307 6.68254 9.83138 6.56407 10.5249 6.66692C11.2324 6.77182 11.8873 7.10147 12.393 7.60717C12.8987 8.11288 13.2283 8.76782 13.3333 9.47525Z" stroke="#F7F7F7" stroke-width="1.3" stroke-linecap="round" stroke-linejoin="round"/>
<path d="M14.5835 5.41602H14.5935" stroke="#F7F7F7" stroke-width="1.3" stroke-linecap="round" stroke-linejoin="round"/>
</svg>
