<svg width="20" height="20" viewBox="0 0 20 20" fill="none" xmlns="http://www.w3.org/2000/svg">
<path d="M19.1668 2.50057C18.3688 3.06347 17.4853 3.49399 16.5502 3.77557C16.0483 3.19849 15.3813 2.78948 14.6394 2.60384C13.8974 2.4182 13.1164 2.4649 12.4019 2.73761C11.6874 3.01033 11.0739 3.4959 10.6443 4.12866C10.2148 4.76143 9.98991 5.51085 10.0002 6.27557V7.1089C8.53569 7.14687 7.08456 6.82208 5.776 6.16344C4.46745 5.5048 3.34209 4.53276 2.50016 3.3339C2.50016 3.3339 -0.83317 10.8339 6.66683 14.1672C4.9506 15.3322 2.90613 15.9163 0.833496 15.8339C8.3335 20.0006 17.5002 15.8339 17.5002 6.25057C17.4994 6.01845 17.4771 5.7869 17.4335 5.5589C18.284 4.72014 18.8842 3.66116 19.1668 2.50057Z" stroke="#F7F7F7" stroke-width="1.3" stroke-linecap="round" stroke-linejoin="round"/>
</svg>
