<?xml version="1.0" standalone="no"?>
<!DOCTYPE svg PUBLIC "-//W3C//DTD SVG 20010904//EN"
 "http://www.w3.org/TR/2001/REC-SVG-20010904/DTD/svg10.dtd">
<svg version="1.0" xmlns="http://www.w3.org/2000/svg"
 width="520.000000pt" height="520.000000pt" viewBox="0 0 520.000000 520.000000"
 preserveAspectRatio="xMidYMid meet">
<metadata>
Created by potrace 1.14, written by Peter Selinger 2001-2017
</metadata>
<g transform="translate(0.000000,520.000000) scale(0.100000,-0.100000)"
fill="#000000" stroke="none">
<path d="M0 2600 l0 -2600 2600 0 2600 0 0 2600 0 2600 -2600 0 -2600 0 0
-2600z m1860 738 c403 -794 735 -1446 739 -1450 3 -4 336 645 740 1442 l733
1450 389 0 389 0 0 -2180 0 -2180 -330 0 -330 0 -2 1605 -3 1606 -664 -1296
-665 -1295 -254 2 -254 3 -667 1290 -666 1291 -3 -1603 -2 -1603 -330 0 -330
0 0 2180 0 2180 389 0 388 0 733 -1442z"/>
</g>
</svg>
